<svg width="35" height="35" viewBox="0 0 35 35" fill="none" xmlns="http://www.w3.org/2000/svg">
<path d="M26.25 2.91669H11.6667C10.1196 2.91669 8.63583 3.53127 7.54187 4.62523C6.44791 5.71919 5.83333 7.20292 5.83333 8.75002V26.25C5.83333 27.7971 6.44791 29.2808 7.54187 30.3748C8.63583 31.4688 10.1196 32.0834 11.6667 32.0834H26.25C27.0235 32.0834 27.7654 31.7761 28.3124 31.2291C28.8594 30.6821 29.1667 29.9402 29.1667 29.1667V5.83335C29.1667 5.05981 28.8594 4.31794 28.3124 3.77096C27.7654 3.22398 27.0235 2.91669 26.25 2.91669ZM8.74999 8.75002C8.74999 7.97647 9.05729 7.23461 9.60427 6.68763C10.1512 6.14064 10.8931 5.83335 11.6667 5.83335H26.25V20.4167H11.6667C10.6386 20.421 9.63082 20.7032 8.74999 21.2334V8.75002ZM11.6667 29.1667C10.8931 29.1667 10.1512 28.8594 9.60427 28.3124C9.05729 27.7654 8.74999 27.0236 8.74999 26.25C8.74999 25.4765 9.05729 24.7346 9.60427 24.1876C10.1512 23.6406 10.8931 23.3334 11.6667 23.3334H26.25V29.1667H11.6667ZM14.5833 11.6667H20.4167C20.8034 11.6667 21.1744 11.513 21.4479 11.2396C21.7213 10.9661 21.875 10.5951 21.875 10.2084C21.875 9.82158 21.7213 9.45065 21.4479 9.17716C21.1744 8.90367 20.8034 8.75002 20.4167 8.75002H14.5833C14.1966 8.75002 13.8256 8.90367 13.5521 9.17716C13.2786 9.45065 13.125 9.82158 13.125 10.2084C13.125 10.5951 13.2786 10.9661 13.5521 11.2396C13.8256 11.513 14.1966 11.6667 14.5833 11.6667V11.6667Z" fill="#D2D3D5"/>
</svg>
