<svg width="35" height="35" viewBox="0 0 35 35" fill="none" xmlns="http://www.w3.org/2000/svg">
<path d="M26.25 2.91667H11.6667C10.1196 2.91667 8.63585 3.53125 7.54189 4.62522C6.44792 5.71918 5.83334 7.20291 5.83334 8.75V26.25C5.83334 27.7971 6.44792 29.2808 7.54189 30.3748C8.63585 31.4688 10.1196 32.0833 11.6667 32.0833H26.25C27.0236 32.0833 27.7654 31.776 28.3124 31.2291C28.8594 30.6821 29.1667 29.9402 29.1667 29.1667V5.83334C29.1667 5.05979 28.8594 4.31792 28.3124 3.77094C27.7654 3.22396 27.0236 2.91667 26.25 2.91667ZM8.75001 8.75C8.75001 7.97646 9.0573 7.23459 9.60428 6.68761C10.1513 6.14063 10.8931 5.83334 11.6667 5.83334H26.25V20.4167H11.6667C10.6386 20.421 9.63083 20.7032 8.75001 21.2333V8.75ZM11.6667 29.1667C10.8931 29.1667 10.1513 28.8594 9.60428 28.3124C9.0573 27.7654 8.75001 27.0236 8.75001 26.25C8.75001 25.4765 9.0573 24.7346 9.60428 24.1876C10.1513 23.6406 10.8931 23.3333 11.6667 23.3333H26.25V29.1667H11.6667ZM14.5833 11.6667H20.4167C20.8035 11.6667 21.1744 11.513 21.4479 11.2395C21.7214 10.966 21.875 10.5951 21.875 10.2083C21.875 9.82156 21.7214 9.45063 21.4479 9.17714C21.1744 8.90365 20.8035 8.75 20.4167 8.75H14.5833C14.1966 8.75 13.8256 8.90365 13.5521 9.17714C13.2787 9.45063 13.125 9.82156 13.125 10.2083C13.125 10.5951 13.2787 10.966 13.5521 11.2395C13.8256 11.513 14.1966 11.6667 14.5833 11.6667Z" fill="#D2D3D5"/>
</svg>
