<svg width="35" height="35" viewBox="0 0 35 35" fill="none" xmlns="http://www.w3.org/2000/svg">
<path d="M32.0833 16.0417C32.0874 15.0138 31.8198 14.003 31.3076 13.1118C30.7954 12.2206 30.0569 11.4806 29.1667 10.9667C29.1886 10.7144 29.1886 10.4606 29.1667 10.2083C29.1667 9.04801 28.7057 7.93521 27.8853 7.11474C27.0648 6.29426 25.952 5.83333 24.7917 5.83333H24.5292C24.2863 5.16003 23.882 4.5566 23.3516 4.07596C22.8213 3.59531 22.1811 3.25213 21.4872 3.0765C20.7933 2.90087 20.067 2.89817 19.3718 3.06862C18.6766 3.23907 18.0339 3.57748 17.5 4.05416C16.9661 3.57748 16.3234 3.23907 15.6282 3.06862C14.933 2.89817 14.2067 2.90087 13.5128 3.0765C12.8189 3.25213 12.1787 3.59531 11.6484 4.07596C11.118 4.5566 10.7137 5.16003 10.4708 5.83333H10.2083C9.04801 5.83333 7.93521 6.29426 7.11474 7.11474C6.29427 7.93521 5.83334 9.04801 5.83334 10.2083C5.81139 10.4606 5.81139 10.7144 5.83334 10.9667C5.00567 11.4345 4.3049 12.0975 3.79202 12.898C3.27914 13.6986 2.96969 14.6123 2.89062 15.5597C2.81155 16.5072 2.96524 17.4596 3.33833 18.334C3.71142 19.2085 4.29259 19.9785 5.03125 20.5771C4.55331 21.4685 4.31538 22.4689 4.3408 23.48C4.36622 24.4912 4.65412 25.4784 5.17624 26.3446C5.69837 27.2109 6.43677 27.9266 7.31898 28.4213C8.20119 28.9161 9.19689 29.1729 10.2083 29.1667H10.4708C10.7137 29.84 11.118 30.4434 11.6484 30.924C12.1787 31.4047 12.8189 31.7479 13.5128 31.9235C14.2067 32.0991 14.933 32.1018 15.6282 31.9314C16.3234 31.7609 16.9661 31.4225 17.5 30.9458C18.0339 31.4225 18.6766 31.7609 19.3718 31.9314C20.067 32.1018 20.7933 32.0991 21.4872 31.9235C22.1811 31.7479 22.8213 31.4047 23.3516 30.924C23.882 30.4434 24.2863 29.84 24.5292 29.1667H24.7917C25.7969 29.1603 26.7835 28.8943 27.6557 28.3943C28.5279 27.8944 29.256 27.1776 29.7696 26.3134C30.2831 25.4491 30.5646 24.4669 30.5867 23.4618C30.6088 22.4568 30.3709 21.4631 29.8958 20.5771C30.576 20.0325 31.1256 19.3424 31.5042 18.5576C31.8827 17.7727 32.0806 16.913 32.0833 16.0417ZM16.0417 12.4687C15.724 12.2871 15.3924 12.131 15.05 12.0021C14.6826 11.8783 14.281 11.9056 13.9337 12.0779C13.5863 12.2502 13.3217 12.5534 13.1979 12.9208C13.0742 13.2883 13.1014 13.6898 13.2737 14.0371C13.446 14.3845 13.7492 14.6491 14.1167 14.7729C14.678 14.9759 15.1636 15.3462 15.5079 15.8338C15.8521 16.3215 16.0384 16.9031 16.0417 17.5V19.7604C15.724 19.5787 15.3924 19.4227 15.05 19.2937C14.6826 19.17 14.281 19.1972 13.9337 19.3695C13.5863 19.5418 13.3217 19.8451 13.1979 20.2125C13.0742 20.5799 13.1014 20.9815 13.2737 21.3288C13.446 21.6761 13.7492 21.9408 14.1167 22.0646C14.678 22.2675 15.1636 22.6378 15.5079 23.1255C15.8521 23.6132 16.0384 24.1947 16.0417 24.7917V27.7083C16.0417 28.0951 15.888 28.466 15.6145 28.7395C15.341 29.013 14.9701 29.1667 14.5833 29.1667C14.3012 29.1648 14.0256 29.0812 13.7901 28.9259C13.5545 28.7706 13.3691 28.5503 13.2563 28.2917C13.5008 28.1482 13.7347 27.9873 13.9563 27.8104C14.1037 27.6878 14.2256 27.5374 14.3149 27.3678C14.4043 27.1981 14.4593 27.0125 14.4769 26.8216C14.4945 26.6306 14.4743 26.4381 14.4175 26.2549C14.3607 26.0718 14.2684 25.9016 14.1458 25.7542C14.0233 25.6067 13.8729 25.4848 13.7032 25.3955C13.5335 25.3062 13.3479 25.2511 13.157 25.2335C12.966 25.2159 12.7735 25.2361 12.5904 25.2929C12.4072 25.3497 12.237 25.442 12.0896 25.5646C11.563 26.0079 10.8967 26.2507 10.2083 26.25C9.43479 26.25 8.69292 25.9427 8.14594 25.3957C7.59896 24.8487 7.29167 24.1069 7.29167 23.3333C7.29865 22.7844 7.4604 22.2486 7.75834 21.7875C8.08562 21.8462 8.4175 21.8755 8.75 21.875C9.13678 21.875 9.50771 21.7213 9.7812 21.4479C10.0547 21.1744 10.2083 20.8034 10.2083 20.4167C10.2083 20.0299 10.0547 19.659 9.7812 19.3855C9.50771 19.112 9.13678 18.9583 8.75 18.9583C8.40553 18.9603 8.06389 18.8959 7.74375 18.7687C7.21925 18.5796 6.75997 18.244 6.4203 17.8019C6.08063 17.3597 5.87482 16.8295 5.82725 16.2739C5.77968 15.7184 5.89234 15.1609 6.15188 14.6674C6.41142 14.1739 6.80697 13.7652 7.29167 13.4896C7.4989 13.6802 7.72348 13.8511 7.9625 14C8.299 14.1934 8.69853 14.2452 9.07321 14.144C9.44789 14.0428 9.76703 13.7969 9.96042 13.4604C10.1538 13.1239 10.2056 12.7244 10.1044 12.3497C10.0032 11.975 9.75733 11.6559 9.42083 11.4625C9.21554 11.3492 9.04433 11.1831 8.925 10.9812C8.79017 10.7471 8.72918 10.4777 8.75 10.2083C8.75 9.82155 8.90365 9.45062 9.17714 9.17713C9.45063 8.90364 9.82156 8.74999 10.2083 8.74999C10.3099 8.73582 10.413 8.73582 10.5146 8.74999C10.5918 8.98431 10.6843 9.21327 10.7917 9.43541C10.8869 9.60252 11.0143 9.74912 11.1665 9.86679C11.3187 9.98445 11.4926 10.0709 11.6783 10.121C11.864 10.1712 12.0578 10.1841 12.2485 10.159C12.4393 10.134 12.6231 10.0714 12.7896 9.97499C13.1129 9.78046 13.3482 9.46819 13.4461 9.10378C13.544 8.73937 13.4969 8.3512 13.3146 8.02083C13.1922 7.79713 13.1271 7.54663 13.125 7.29166C13.125 6.90489 13.2786 6.53395 13.5521 6.26046C13.8256 5.98697 14.1966 5.83333 14.5833 5.83333C14.9701 5.83333 15.341 5.98697 15.6145 6.26046C15.888 6.53395 16.0417 6.90489 16.0417 7.29166V12.4687ZM27.2563 18.7687C26.9361 18.8959 26.5945 18.9603 26.25 18.9583C25.8632 18.9583 25.4923 19.112 25.2188 19.3855C24.9453 19.659 24.7917 20.0299 24.7917 20.4167C24.7917 20.8034 24.9453 21.1744 25.2188 21.4479C25.4923 21.7213 25.8632 21.875 26.25 21.875C26.5825 21.8755 26.9144 21.8462 27.2417 21.7875C27.5396 22.2486 27.7014 22.7844 27.7083 23.3333C27.7083 24.1069 27.401 24.8487 26.8541 25.3957C26.3071 25.9427 25.5652 26.25 24.7917 26.25C24.1034 26.2507 23.437 26.0079 22.9104 25.5646C22.6126 25.317 22.2286 25.198 21.843 25.2335C21.4574 25.2691 21.1017 25.4563 20.8542 25.7542C20.6066 26.052 20.4875 26.4359 20.5231 26.8216C20.5586 27.2072 20.7459 27.5629 21.0438 27.8104C21.2653 27.9873 21.4992 28.1482 21.7438 28.2917C21.6309 28.5503 21.4455 28.7706 21.2099 28.9259C20.9744 29.0812 20.6988 29.1648 20.4167 29.1667C20.0299 29.1667 19.659 29.013 19.3855 28.7395C19.112 28.466 18.9583 28.0951 18.9583 27.7083V24.7917C18.9616 24.1947 19.1479 23.6132 19.4921 23.1255C19.8364 22.6378 20.322 22.2675 20.8833 22.0646C21.2508 21.9408 21.554 21.6761 21.7263 21.3288C21.8986 20.9815 21.9259 20.5799 21.8021 20.2125C21.6783 19.8451 21.4137 19.5418 21.0663 19.3695C20.719 19.1972 20.3174 19.17 19.95 19.2937C19.6076 19.4227 19.276 19.5787 18.9583 19.7604V17.5C18.9616 16.9031 19.1479 16.3215 19.4921 15.8338C19.8364 15.3462 20.322 14.9759 20.8833 14.7729C21.2508 14.6491 21.554 14.3845 21.7263 14.0371C21.8986 13.6898 21.9259 13.2883 21.8021 12.9208C21.6783 12.5534 21.4137 12.2502 21.0663 12.0779C20.719 11.9056 20.3174 11.8783 19.95 12.0021C19.6076 12.131 19.276 12.2871 18.9583 12.4687V7.29166C18.9583 6.90489 19.112 6.53395 19.3855 6.26046C19.659 5.98697 20.0299 5.83333 20.4167 5.83333C20.8034 5.83333 21.1744 5.98697 21.4479 6.26046C21.7214 6.53395 21.875 6.90489 21.875 7.29166C21.8729 7.54663 21.8078 7.79713 21.6854 8.02083C21.5884 8.1864 21.525 8.3695 21.4989 8.55962C21.4728 8.74975 21.4844 8.94316 21.5332 9.12877C21.582 9.31438 21.6669 9.48853 21.7831 9.64125C21.8993 9.79397 22.0445 9.92226 22.2104 10.0187C22.3769 10.1152 22.5607 10.1777 22.7515 10.2028C22.9422 10.2278 23.136 10.2149 23.3217 10.1648C23.5074 10.1146 23.6813 10.0282 23.8335 9.91054C23.9857 9.79288 24.1131 9.64627 24.2083 9.47916C24.3175 9.24282 24.4101 8.99918 24.4854 8.74999C24.587 8.73582 24.6901 8.73582 24.7917 8.74999C25.1784 8.74999 25.5494 8.90364 25.8229 9.17713C26.0964 9.45062 26.25 9.82155 26.25 10.2083C26.2478 10.4942 26.1616 10.7731 26.0021 11.0104C25.8828 11.1997 25.7172 11.3553 25.5208 11.4625C25.1843 11.6559 24.9385 11.975 24.8373 12.3497C24.7361 12.7244 24.7879 13.1239 24.9812 13.4604C25.1746 13.7969 25.4938 14.0428 25.8685 14.144C26.2431 14.2452 26.6427 14.1934 26.9792 14C27.241 13.8584 27.4857 13.6871 27.7083 13.4896C28.1947 13.7603 28.5934 14.1645 28.8574 14.6545C29.1215 15.1446 29.2398 15.6999 29.1984 16.255C29.157 16.8101 28.9576 17.3417 28.6238 17.7871C28.29 18.2326 27.8357 18.5732 27.3146 18.7687H27.2563Z" fill="#D2D3D5"/>
</svg>
