<svg width="35" height="35" viewBox="0 0 35 35" fill="none" xmlns="http://www.w3.org/2000/svg">
<path d="M32.0833 16.0417C32.0874 15.0138 31.8198 14.0031 31.3076 13.1119C30.7954 12.2206 30.0568 11.4806 29.1667 10.9667C29.1886 10.7144 29.1886 10.4606 29.1667 10.2083C29.1667 9.04801 28.7057 7.93521 27.8852 7.11474C27.0648 6.29427 25.952 5.83333 24.7917 5.83333H24.5292C24.2863 5.16004 23.882 4.55661 23.3516 4.07596C22.8212 3.59532 22.1811 3.25213 21.4872 3.07651C20.7933 2.90088 20.067 2.89817 19.3718 3.06863C18.6766 3.23908 18.0339 3.57748 17.5 4.05417C16.9661 3.57748 16.3233 3.23908 15.6282 3.06863C14.933 2.89817 14.2067 2.90088 13.5128 3.07651C12.8189 3.25213 12.1787 3.59532 11.6484 4.07596C11.118 4.55661 10.7137 5.16004 10.4708 5.83333H10.2083C9.048 5.83333 7.9352 6.29427 7.11473 7.11474C6.29426 7.93521 5.83332 9.04801 5.83332 10.2083C5.81137 10.4606 5.81137 10.7144 5.83332 10.9667C5.00566 11.4345 4.30489 12.0975 3.792 12.898C3.27912 13.6986 2.96968 14.6123 2.8906 15.5597C2.81153 16.5072 2.96523 17.4596 3.33832 18.334C3.7114 19.2085 4.29258 19.9785 5.03124 20.5771C4.5533 21.4685 4.31536 22.4689 4.34078 23.48C4.3662 24.4912 4.6541 25.4784 5.17623 26.3446C5.69835 27.2109 6.43676 27.9266 7.31897 28.4213C8.20118 28.9161 9.19687 29.1729 10.2083 29.1667H10.4708C10.7137 29.84 11.118 30.4434 11.6484 30.924C12.1787 31.4047 12.8189 31.7479 13.5128 31.9235C14.2067 32.0991 14.933 32.1018 15.6282 31.9314C16.3233 31.7609 16.9661 31.4225 17.5 30.9458C18.0339 31.4225 18.6766 31.7609 19.3718 31.9314C20.067 32.1018 20.7933 32.0991 21.4872 31.9235C22.1811 31.7479 22.8212 31.4047 23.3516 30.924C23.882 30.4434 24.2863 29.84 24.5292 29.1667H24.7917C25.7969 29.1603 26.7835 28.8943 27.6557 28.3944C28.5278 27.8944 29.256 27.1776 29.7696 26.3134C30.2831 25.4491 30.5646 24.4669 30.5867 23.4618C30.6088 22.4568 30.3708 21.4631 29.8958 20.5771C30.576 20.0325 31.1256 19.3424 31.5041 18.5576C31.8827 17.7727 32.0806 16.913 32.0833 16.0417ZM16.0417 12.4688C15.724 12.2871 15.3924 12.131 15.05 12.0021C14.6826 11.8783 14.281 11.9056 13.9337 12.0779C13.5863 12.2502 13.3217 12.5534 13.1979 12.9208C13.0741 13.2883 13.1014 13.6898 13.2737 14.0372C13.446 14.3845 13.7492 14.6491 14.1167 14.7729C14.678 14.9759 15.1636 15.3462 15.5079 15.8338C15.8521 16.3215 16.0384 16.9031 16.0417 17.5V19.7604C15.724 19.5788 15.3924 19.4227 15.05 19.2937C14.6826 19.17 14.281 19.1972 13.9337 19.3695C13.5863 19.5418 13.3217 19.8451 13.1979 20.2125C13.0741 20.5799 13.1014 20.9815 13.2737 21.3288C13.446 21.6762 13.7492 21.9408 14.1167 22.0646C14.678 22.2675 15.1636 22.6378 15.5079 23.1255C15.8521 23.6132 16.0384 24.1947 16.0417 24.7917V27.7083C16.0417 28.0951 15.888 28.466 15.6145 28.7395C15.341 29.013 14.9701 29.1667 14.5833 29.1667C14.3012 29.1648 14.0256 29.0812 13.7901 28.9259C13.5545 28.7706 13.3691 28.5503 13.2562 28.2917C13.5008 28.1482 13.7347 27.9873 13.9562 27.8104C14.1037 27.6879 14.2256 27.5374 14.3149 27.3678C14.4042 27.1981 14.4593 27.0125 14.4769 26.8216C14.4945 26.6306 14.4743 26.4381 14.4175 26.2549C14.3607 26.0718 14.2684 25.9016 14.1458 25.7542C14.0233 25.6067 13.8728 25.4848 13.7032 25.3955C13.5335 25.3062 13.3479 25.2511 13.157 25.2335C12.966 25.2159 12.7735 25.2361 12.5903 25.2929C12.4072 25.3497 12.237 25.442 12.0896 25.5646C11.563 26.0079 10.8966 26.2507 10.2083 26.25C9.43477 26.25 8.69291 25.9427 8.14593 25.3957C7.59894 24.8487 7.29165 24.1069 7.29165 23.3333C7.29863 22.7844 7.46039 22.2486 7.75832 21.7875C8.0856 21.8462 8.41748 21.8755 8.74999 21.875C9.13676 21.875 9.50769 21.7214 9.78118 21.4479C10.0547 21.1744 10.2083 20.8034 10.2083 20.4167C10.2083 20.0299 10.0547 19.659 9.78118 19.3855C9.50769 19.112 9.13676 18.9583 8.74999 18.9583C8.40551 18.9603 8.06387 18.8959 7.74374 18.7688C7.21924 18.5796 6.75995 18.244 6.42029 17.8019C6.08062 17.3597 5.87481 16.8295 5.82724 16.2739C5.77966 15.7184 5.89232 15.1609 6.15186 14.6674C6.4114 14.1739 6.80695 13.7652 7.29165 13.4896C7.49888 13.6802 7.72347 13.8511 7.96249 14C8.29898 14.1934 8.69851 14.2452 9.0732 14.144C9.44788 14.0428 9.76702 13.7969 9.9604 13.4604C10.1538 13.1239 10.2056 12.7244 10.1044 12.3497C10.0032 11.975 9.75731 11.6559 9.42082 11.4625C9.21552 11.3492 9.04431 11.1831 8.92499 10.9813C8.79016 10.7471 8.72916 10.4777 8.74999 10.2083C8.74999 9.82156 8.90363 9.45063 9.17712 9.17714C9.45061 8.90365 9.82155 8.75 10.2083 8.75C10.3099 8.73583 10.413 8.73583 10.5146 8.75C10.5918 8.98431 10.6843 9.21328 10.7917 9.43542C10.8869 9.60252 11.0143 9.74913 11.1665 9.8668C11.3187 9.98446 11.4926 10.0709 11.6783 10.121C11.864 10.1712 12.0578 10.1841 12.2485 10.159C12.4392 10.134 12.6231 10.0714 12.7896 9.975C13.1129 9.78047 13.3482 9.46819 13.4461 9.10378C13.544 8.73937 13.4969 8.3512 13.3146 8.02083C13.1922 7.79713 13.1271 7.54664 13.125 7.29167C13.125 6.90489 13.2786 6.53396 13.5521 6.26047C13.8256 5.98698 14.1965 5.83333 14.5833 5.83333C14.9701 5.83333 15.341 5.98698 15.6145 6.26047C15.888 6.53396 16.0417 6.90489 16.0417 7.29167V12.4688ZM27.2562 18.7688C26.9361 18.8959 26.5945 18.9603 26.25 18.9583C25.8632 18.9583 25.4923 19.112 25.2188 19.3855C24.9453 19.659 24.7917 20.0299 24.7917 20.4167C24.7917 20.8034 24.9453 21.1744 25.2188 21.4479C25.4923 21.7214 25.8632 21.875 26.25 21.875C26.5825 21.8755 26.9144 21.8462 27.2417 21.7875C27.5396 22.2486 27.7013 22.7844 27.7083 23.3333C27.7083 24.1069 27.401 24.8487 26.854 25.3957C26.3071 25.9427 25.5652 26.25 24.7917 26.25C24.1033 26.2507 23.437 26.0079 22.9104 25.5646C22.6126 25.317 22.2286 25.198 21.843 25.2335C21.4574 25.2691 21.1017 25.4564 20.8542 25.7542C20.6066 26.052 20.4875 26.4359 20.5231 26.8216C20.5586 27.2072 20.7459 27.5629 21.0437 27.8104C21.2653 27.9873 21.4992 28.1482 21.7437 28.2917C21.6309 28.5503 21.4454 28.7706 21.2099 28.9259C20.9743 29.0812 20.6988 29.1648 20.4167 29.1667C20.0299 29.1667 19.6589 29.013 19.3855 28.7395C19.112 28.466 18.9583 28.0951 18.9583 27.7083V24.7917C18.9616 24.1947 19.1479 23.6132 19.4921 23.1255C19.8364 22.6378 20.3219 22.2675 20.8833 22.0646C21.2508 21.9408 21.554 21.6762 21.7263 21.3288C21.8986 20.9815 21.9258 20.5799 21.8021 20.2125C21.6783 19.8451 21.4136 19.5418 21.0663 19.3695C20.719 19.1972 20.3174 19.17 19.95 19.2937C19.6076 19.4227 19.2759 19.5788 18.9583 19.7604V17.5C18.9616 16.9031 19.1479 16.3215 19.4921 15.8338C19.8364 15.3462 20.3219 14.9759 20.8833 14.7729C21.2508 14.6491 21.554 14.3845 21.7263 14.0372C21.8986 13.6898 21.9258 13.2883 21.8021 12.9208C21.6783 12.5534 21.4136 12.2502 21.0663 12.0779C20.719 11.9056 20.3174 11.8783 19.95 12.0021C19.6076 12.131 19.2759 12.2871 18.9583 12.4688V7.29167C18.9583 6.90489 19.112 6.53396 19.3855 6.26047C19.6589 5.98698 20.0299 5.83333 20.4167 5.83333C20.8034 5.83333 21.1744 5.98698 21.4478 6.26047C21.7213 6.53396 21.875 6.90489 21.875 7.29167C21.8729 7.54664 21.8078 7.79713 21.6854 8.02083C21.5884 8.18641 21.525 8.36951 21.4989 8.55963C21.4727 8.74975 21.4844 8.94316 21.5332 9.12877C21.5819 9.31438 21.6669 9.48854 21.7831 9.64126C21.8993 9.79398 22.0445 9.92226 22.2104 10.0187C22.3768 10.1152 22.5607 10.1777 22.7514 10.2028C22.9422 10.2278 23.136 10.2149 23.3217 10.1648C23.5074 10.1146 23.6813 10.0282 23.8335 9.91055C23.9857 9.79288 24.113 9.64627 24.2083 9.47917C24.3175 9.24283 24.4101 8.99919 24.4854 8.75C24.587 8.73583 24.6901 8.73583 24.7917 8.75C25.1784 8.75 25.5494 8.90365 25.8228 9.17714C26.0963 9.45063 26.25 9.82156 26.25 10.2083C26.2478 10.4942 26.1615 10.7731 26.0021 11.0104C25.8828 11.1997 25.7171 11.3553 25.5208 11.4625C25.1843 11.6559 24.9384 11.975 24.8372 12.3497C24.7361 12.7244 24.7878 13.1239 24.9812 13.4604C25.1746 13.7969 25.4938 14.0428 25.8684 14.144C26.2431 14.2452 26.6427 14.1934 26.9792 14C27.241 13.8584 27.4857 13.6871 27.7083 13.4896C28.1947 13.7603 28.5934 14.1645 28.8574 14.6546C29.1215 15.1446 29.2398 15.6999 29.1984 16.255C29.157 16.8101 28.9576 17.3417 28.6238 17.7871C28.29 18.2326 27.8357 18.5732 27.3146 18.7688H27.2562Z" fill="#D2D3D5"/>
</svg>
