<svg width="35" height="35" viewBox="0 0 35 35" fill="none" xmlns="http://www.w3.org/2000/svg">
<path d="M17.5 27.7083C17.7884 27.7083 18.0704 27.6228 18.3102 27.4626C18.55 27.3023 18.7369 27.0746 18.8473 26.8081C18.9577 26.5416 18.9866 26.2484 18.9303 25.9655C18.874 25.6826 18.7351 25.4228 18.5312 25.2188C18.3272 25.0148 18.0674 24.876 17.7845 24.8197C17.5016 24.7634 17.2084 24.7923 16.9419 24.9027C16.6754 25.0131 16.4477 25.2 16.2874 25.4398C16.1272 25.6796 16.0417 25.9616 16.0417 26.25C16.0417 26.6368 16.1953 27.0077 16.4688 27.2812C16.7423 27.5547 17.1132 27.7083 17.5 27.7083ZM24.7917 27.7083C25.0801 27.7083 25.362 27.6228 25.6019 27.4626C25.8417 27.3023 26.0286 27.0746 26.139 26.8081C26.2494 26.5416 26.2782 26.2484 26.222 25.9655C26.1657 25.6826 26.0268 25.4228 25.8229 25.2188C25.6189 25.0148 25.3591 24.876 25.0762 24.8197C24.7933 24.7634 24.5001 24.7923 24.2336 24.9027C23.9671 25.0131 23.7393 25.2 23.5791 25.4398C23.4189 25.6796 23.3333 25.9616 23.3333 26.25C23.3333 26.6368 23.487 27.0077 23.7605 27.2812C24.034 27.5547 24.4049 27.7083 24.7917 27.7083ZM24.7917 21.875C25.0801 21.875 25.362 21.7895 25.6019 21.6292C25.8417 21.469 26.0286 21.2412 26.139 20.9747C26.2494 20.7083 26.2782 20.415 26.222 20.1322C26.1657 19.8493 26.0268 19.5894 25.8229 19.3855C25.6189 19.1815 25.3591 19.0426 25.0762 18.9864C24.7933 18.9301 24.5001 18.959 24.2336 19.0693C23.9671 19.1797 23.7393 19.3666 23.5791 19.6065C23.4189 19.8463 23.3333 20.1282 23.3333 20.4167C23.3333 20.8034 23.487 21.1744 23.7605 21.4479C24.034 21.7214 24.4049 21.875 24.7917 21.875ZM17.5 21.875C17.7884 21.875 18.0704 21.7895 18.3102 21.6292C18.55 21.469 18.7369 21.2412 18.8473 20.9747C18.9577 20.7083 18.9866 20.415 18.9303 20.1322C18.874 19.8493 18.7351 19.5894 18.5312 19.3855C18.3272 19.1815 18.0674 19.0426 17.7845 18.9864C17.5016 18.9301 17.2084 18.959 16.9419 19.0693C16.6754 19.1797 16.4477 19.3666 16.2874 19.6065C16.1272 19.8463 16.0417 20.1282 16.0417 20.4167C16.0417 20.8034 16.1953 21.1744 16.4688 21.4479C16.7423 21.7214 17.1132 21.875 17.5 21.875ZM27.7083 4.375H26.25V2.91666C26.25 2.52989 26.0964 2.15895 25.8229 1.88546C25.5494 1.61197 25.1784 1.45833 24.7917 1.45833C24.4049 1.45833 24.034 1.61197 23.7605 1.88546C23.487 2.15895 23.3333 2.52989 23.3333 2.91666V4.375H11.6667V2.91666C11.6667 2.52989 11.513 2.15895 11.2395 1.88546C10.966 1.61197 10.5951 1.45833 10.2083 1.45833C9.82155 1.45833 9.45062 1.61197 9.17713 1.88546C8.90364 2.15895 8.74999 2.52989 8.74999 2.91666V4.375H7.29166C6.13134 4.375 5.01854 4.83593 4.19806 5.6564C3.37759 6.47688 2.91666 7.58967 2.91666 8.75V29.1667C2.91666 30.327 3.37759 31.4398 4.19806 32.2603C5.01854 33.0807 6.13134 33.5417 7.29166 33.5417H27.7083C28.8687 33.5417 29.9815 33.0807 30.8019 32.2603C31.6224 31.4398 32.0833 30.327 32.0833 29.1667V8.75C32.0833 7.58967 31.6224 6.47688 30.8019 5.6564C29.9815 4.83593 28.8687 4.375 27.7083 4.375ZM29.1667 29.1667C29.1667 29.5534 29.013 29.9244 28.7395 30.1979C28.466 30.4714 28.0951 30.625 27.7083 30.625H7.29166C6.90488 30.625 6.53395 30.4714 6.26046 30.1979C5.98697 29.9244 5.83332 29.5534 5.83332 29.1667V16.0417H29.1667V29.1667ZM29.1667 13.125H5.83332V8.75C5.83332 8.36322 5.98697 7.99229 6.26046 7.7188C6.53395 7.44531 6.90488 7.29166 7.29166 7.29166H8.74999V8.75C8.74999 9.13677 8.90364 9.5077 9.17713 9.78119C9.45062 10.0547 9.82155 10.2083 10.2083 10.2083C10.5951 10.2083 10.966 10.0547 11.2395 9.78119C11.513 9.5077 11.6667 9.13677 11.6667 8.75V7.29166H23.3333V8.75C23.3333 9.13677 23.487 9.5077 23.7605 9.78119C24.034 10.0547 24.4049 10.2083 24.7917 10.2083C25.1784 10.2083 25.5494 10.0547 25.8229 9.78119C26.0964 9.5077 26.25 9.13677 26.25 8.75V7.29166H27.7083C28.0951 7.29166 28.466 7.44531 28.7395 7.7188C29.013 7.99229 29.1667 8.36322 29.1667 8.75V13.125ZM10.2083 21.875C10.4968 21.875 10.7787 21.7895 11.0185 21.6292C11.2584 21.469 11.4453 21.2412 11.5556 20.9747C11.666 20.7083 11.6949 20.415 11.6386 20.1322C11.5824 19.8493 11.4435 19.5894 11.2395 19.3855C11.0356 19.1815 10.7757 19.0426 10.4928 18.9864C10.2099 18.9301 9.91672 18.959 9.65025 19.0693C9.38377 19.1797 9.15601 19.3666 8.99577 19.6065C8.83552 19.8463 8.74999 20.1282 8.74999 20.4167C8.74999 20.8034 8.90364 21.1744 9.17713 21.4479C9.45062 21.7214 9.82155 21.875 10.2083 21.875ZM10.2083 27.7083C10.4968 27.7083 10.7787 27.6228 11.0185 27.4626C11.2584 27.3023 11.4453 27.0746 11.5556 26.8081C11.666 26.5416 11.6949 26.2484 11.6386 25.9655C11.5824 25.6826 11.4435 25.4228 11.2395 25.2188C11.0356 25.0148 10.7757 24.876 10.4928 24.8197C10.2099 24.7634 9.91672 24.7923 9.65025 24.9027C9.38377 25.0131 9.15601 25.2 8.99577 25.4398C8.83552 25.6796 8.74999 25.9616 8.74999 26.25C8.74999 26.6368 8.90364 27.0077 9.17713 27.2812C9.45062 27.5547 9.82155 27.7083 10.2083 27.7083Z" fill="#3782F0"/>
</svg>
