<svg width="35" height="35" viewBox="0 0 35 35" fill="none" xmlns="http://www.w3.org/2000/svg">
<rect width="35" height="35" fill="white"/>
<path d="M17.5 27.7083C17.7884 27.7083 18.0704 27.6228 18.3102 27.4625C18.55 27.3023 18.7369 27.0745 18.8473 26.8081C18.9577 26.5416 18.9866 26.2484 18.9303 25.9655C18.874 25.6826 18.7352 25.4227 18.5312 25.2188C18.3272 25.0148 18.0674 24.8759 17.7845 24.8197C17.5016 24.7634 17.2084 24.7923 16.9419 24.9027C16.6754 25.013 16.4477 25.2 16.2874 25.4398C16.1272 25.6796 16.0417 25.9616 16.0417 26.25C16.0417 26.6368 16.1953 27.0077 16.4688 27.2812C16.7423 27.5547 17.1132 27.7083 17.5 27.7083ZM24.7917 27.7083C25.0801 27.7083 25.3621 27.6228 25.6019 27.4625C25.8417 27.3023 26.0286 27.0745 26.139 26.8081C26.2494 26.5416 26.2783 26.2484 26.222 25.9655C26.1657 25.6826 26.0268 25.4227 25.8229 25.2188C25.6189 25.0148 25.3591 24.8759 25.0762 24.8197C24.7933 24.7634 24.5001 24.7923 24.2336 24.9027C23.9671 25.013 23.7394 25.2 23.5791 25.4398C23.4189 25.6796 23.3333 25.9616 23.3333 26.25C23.3333 26.6368 23.487 27.0077 23.7605 27.2812C24.034 27.5547 24.4049 27.7083 24.7917 27.7083ZM24.7917 21.875C25.0801 21.875 25.3621 21.7895 25.6019 21.6292C25.8417 21.469 26.0286 21.2412 26.139 20.9747C26.2494 20.7083 26.2783 20.415 26.222 20.1321C26.1657 19.8493 26.0268 19.5894 25.8229 19.3855C25.6189 19.1815 25.3591 19.0426 25.0762 18.9863C24.7933 18.9301 24.5001 18.9589 24.2336 19.0693C23.9671 19.1797 23.7394 19.3666 23.5791 19.6064C23.4189 19.8463 23.3333 20.1282 23.3333 20.4166C23.3333 20.8034 23.487 21.1744 23.7605 21.4478C24.034 21.7213 24.4049 21.875 24.7917 21.875ZM17.5 21.875C17.7884 21.875 18.0704 21.7895 18.3102 21.6292C18.55 21.469 18.7369 21.2412 18.8473 20.9747C18.9577 20.7083 18.9866 20.415 18.9303 20.1321C18.874 19.8493 18.7352 19.5894 18.5312 19.3855C18.3272 19.1815 18.0674 19.0426 17.7845 18.9863C17.5016 18.9301 17.2084 18.9589 16.9419 19.0693C16.6754 19.1797 16.4477 19.3666 16.2874 19.6064C16.1272 19.8463 16.0417 20.1282 16.0417 20.4166C16.0417 20.8034 16.1953 21.1744 16.4688 21.4478C16.7423 21.7213 17.1132 21.875 17.5 21.875ZM27.7083 4.37498H26.25V2.91665C26.25 2.52987 26.0964 2.15894 25.8229 1.88545C25.5494 1.61196 25.1784 1.45831 24.7917 1.45831C24.4049 1.45831 24.034 1.61196 23.7605 1.88545C23.487 2.15894 23.3333 2.52987 23.3333 2.91665V4.37498H11.6667V2.91665C11.6667 2.52987 11.513 2.15894 11.2395 1.88545C10.966 1.61196 10.5951 1.45831 10.2083 1.45831C9.82156 1.45831 9.45063 1.61196 9.17714 1.88545C8.90364 2.15894 8.75 2.52987 8.75 2.91665V4.37498H7.29167C6.13134 4.37498 5.01854 4.83592 4.19807 5.65639C3.3776 6.47686 2.91666 7.58966 2.91666 8.74998V29.1666C2.91666 30.327 3.3776 31.4398 4.19807 32.2602C5.01854 33.0807 6.13134 33.5416 7.29167 33.5416H27.7083C28.8687 33.5416 29.9815 33.0807 30.8019 32.2602C31.6224 31.4398 32.0833 30.327 32.0833 29.1666V8.74998C32.0833 7.58966 31.6224 6.47686 30.8019 5.65639C29.9815 4.83592 28.8687 4.37498 27.7083 4.37498ZM29.1667 29.1666C29.1667 29.5534 29.013 29.9244 28.7395 30.1978C28.466 30.4713 28.0951 30.625 27.7083 30.625H7.29167C6.90489 30.625 6.53396 30.4713 6.26047 30.1978C5.98698 29.9244 5.83333 29.5534 5.83333 29.1666V16.0416H29.1667V29.1666ZM29.1667 13.125H5.83333V8.74998C5.83333 8.36321 5.98698 7.99227 6.26047 7.71878C6.53396 7.44529 6.90489 7.29165 7.29167 7.29165H8.75V8.74998C8.75 9.13675 8.90364 9.50769 9.17714 9.78118C9.45063 10.0547 9.82156 10.2083 10.2083 10.2083C10.5951 10.2083 10.966 10.0547 11.2395 9.78118C11.513 9.50769 11.6667 9.13675 11.6667 8.74998V7.29165H23.3333V8.74998C23.3333 9.13675 23.487 9.50769 23.7605 9.78118C24.034 10.0547 24.4049 10.2083 24.7917 10.2083C25.1784 10.2083 25.5494 10.0547 25.8229 9.78118C26.0964 9.50769 26.25 9.13675 26.25 8.74998V7.29165H27.7083C28.0951 7.29165 28.466 7.44529 28.7395 7.71878C29.013 7.99227 29.1667 8.36321 29.1667 8.74998V13.125ZM10.2083 21.875C10.4968 21.875 10.7787 21.7895 11.0185 21.6292C11.2584 21.469 11.4453 21.2412 11.5557 20.9747C11.666 20.7083 11.6949 20.415 11.6386 20.1321C11.5824 19.8493 11.4435 19.5894 11.2395 19.3855C11.0356 19.1815 10.7757 19.0426 10.4928 18.9863C10.21 18.9301 9.91673 18.9589 9.65025 19.0693C9.38378 19.1797 9.15602 19.3666 8.99577 19.6064C8.83553 19.8463 8.75 20.1282 8.75 20.4166C8.75 20.8034 8.90364 21.1744 9.17714 21.4478C9.45063 21.7213 9.82156 21.875 10.2083 21.875ZM10.2083 27.7083C10.4968 27.7083 10.7787 27.6228 11.0185 27.4625C11.2584 27.3023 11.4453 27.0745 11.5557 26.8081C11.666 26.5416 11.6949 26.2484 11.6386 25.9655C11.5824 25.6826 11.4435 25.4227 11.2395 25.2188C11.0356 25.0148 10.7757 24.8759 10.4928 24.8197C10.21 24.7634 9.91673 24.7923 9.65025 24.9027C9.38378 25.013 9.15602 25.2 8.99577 25.4398C8.83553 25.6796 8.75 25.9616 8.75 26.25C8.75 26.6368 8.90364 27.0077 9.17714 27.2812C9.45063 27.5547 9.82156 27.7083 10.2083 27.7083Z" fill="#3782F0"/>
</svg>
