<svg width="25" height="31" viewBox="0 0 25 31" fill="none" xmlns="http://www.w3.org/2000/svg">
<path d="M24.1667 11.0375C24.1515 10.9036 24.1221 10.7716 24.0792 10.6438V10.5125C24.009 10.3626 23.9155 10.2247 23.8021 10.1042V10.1042L15.0521 1.35419C14.9315 1.24075 14.7937 1.14722 14.6437 1.0771H14.5125L14.0458 0.916687H5.20833C4.04801 0.916687 2.93521 1.37762 2.11474 2.1981C1.29427 3.01857 0.833332 4.13137 0.833332 5.29169V25.7084C0.833332 26.8687 1.29427 27.9815 2.11474 28.8019C2.93521 29.6224 4.04801 30.0834 5.20833 30.0834H19.7917C20.952 30.0834 22.0648 29.6224 22.8853 28.8019C23.7057 27.9815 24.1667 26.8687 24.1667 25.7084V11.125C24.1667 11.125 24.1667 11.125 24.1667 11.0375ZM15.4167 5.8896L19.1937 9.66669H15.4167V5.8896ZM21.25 25.7084C21.25 26.0951 21.0964 26.4661 20.8229 26.7396C20.5494 27.013 20.1784 27.1667 19.7917 27.1667H5.20833C4.82156 27.1667 4.45063 27.013 4.17713 26.7396C3.90364 26.4661 3.75 26.0951 3.75 25.7084V5.29169C3.75 4.90491 3.90364 4.53398 4.17713 4.26049C4.45063 3.987 4.82156 3.83335 5.20833 3.83335H12.5V11.125C12.5 11.5118 12.6536 11.8827 12.9271 12.1562C13.2006 12.4297 13.5716 12.5834 13.9583 12.5834H21.25V25.7084Z" fill="#666666"/>
</svg>
