<svg width="35" height="35" viewBox="0 0 35 35" fill="none" xmlns="http://www.w3.org/2000/svg">
<path d="M19.2944 2.92167C17.8287 2.86585 16.3671 3.11053 14.9995 3.64066C13.6318 4.17079 12.3871 4.97515 11.342 6.00425C10.2872 7.02076 9.4491 8.24034 8.87832 9.58945C8.30754 10.9386 8.01585 12.3893 8.02083 13.8542V13.8983L5.24373 19.795C5.13878 20.0173 5.09171 20.2624 5.10692 20.5077C5.12212 20.753 5.1991 20.9904 5.33069 21.198C5.46229 21.4055 5.64422 21.5764 5.85959 21.6948C6.07495 21.8132 6.31675 21.8752 6.5625 21.875H8.02083V24.7917C8.02172 25.565 8.32929 26.3063 8.87608 26.8531C9.42287 27.3999 10.1642 27.7075 10.9375 27.7083H12.3958V30.625C12.3958 31.0118 12.5495 31.3827 12.823 31.6562C13.0965 31.9297 13.4674 32.0833 13.8542 32.0833C14.2409 32.0833 14.6119 31.9297 14.8854 31.6562C15.1589 31.3827 15.3125 31.0118 15.3125 30.625V27.7083C15.6993 27.7083 16.0702 27.5547 16.3437 27.2812C16.6172 27.0077 16.7708 26.6368 16.7708 26.25C16.7708 25.8632 16.6172 25.4923 16.3437 25.2188C16.0702 24.9453 15.6993 24.7917 15.3125 24.7917H10.9375V20.4167C10.9376 20.2252 10.8999 20.0355 10.8266 19.8585C10.7533 19.6816 10.6459 19.5208 10.5105 19.3854C10.375 19.2499 10.2143 19.1425 10.0373 19.0693C9.86035 18.996 9.67069 18.9583 9.47917 18.9583H8.86108L10.815 14.8105C10.9152 14.5993 10.9626 14.3669 10.9531 14.1333C10.9531 14.1184 10.9389 13.8691 10.9375 13.8542C10.9337 12.78 11.1475 11.7161 11.5661 10.7268C11.9846 9.73743 12.5992 8.84311 13.3728 8.09774C14.1454 7.35114 15.0594 6.76652 16.0612 6.37827C17.0629 5.99001 18.1322 5.80595 19.2061 5.83691C21.3356 5.96977 23.3319 6.91853 24.7797 8.4858C26.2275 10.0531 27.0153 12.1182 26.9792 14.2515L24.1109 25.1961C24.0439 25.4516 24.0469 25.7205 24.1195 25.9744L25.5778 31.0295C25.6657 31.3333 25.8498 31.6004 26.1026 31.7905C26.3553 31.9807 26.6629 32.0837 26.9792 32.0841C27.116 32.0836 27.2521 32.0642 27.3836 32.0264C27.7552 31.919 28.069 31.6685 28.2559 31.3299C28.4429 30.9912 28.4877 30.5922 28.3805 30.2206L27.0333 25.5536L29.8474 14.9572C29.8792 14.8351 29.8954 14.7095 29.8958 14.5833V14.2515C29.927 11.3614 28.8423 8.57072 26.8675 6.46029C24.8928 4.34987 22.1802 3.08237 19.2944 2.92167V2.92167Z" fill="#C0C5CF"/>
</svg>
